<?xml version="1.0" encoding="UTF-8"?>
<svg xmlns="http://www.w3.org/2000/svg" xmlns:xlink="http://www.w3.org/1999/xlink" width="20px" height="20px" viewBox="0 0 20 20" version="1.1">
<g id="surface1">
<path style=" stroke:none;fill-rule:nonzero;fill:#C2410C;fill-opacity:1;" d="M 13.515625 9.414062 L 13.515625 17.617188 L 12.34375 17.617188 L 12.34375 5.898438 L 7.65625 5.898438 L 7.65625 17.617188 L 6.484375 17.617188 L 6.484375 10.585938 L 1.796875 10.585938 L 1.796875 17.617188 L 0 17.617188 L 0 18.789062 L 20 18.789062 L 20 17.617188 L 18.203125 17.617188 L 18.203125 1.210938 L 13.515625 1.210938 Z M 17.03125 10 L 17.03125 17.617188 L 14.6875 17.617188 L 14.6875 2.382812 L 17.03125 2.382812 Z M 11.171875 12.34375 L 11.171875 17.617188 L 8.828125 17.617188 L 8.828125 7.070312 L 11.171875 7.070312 Z M 5.3125 14.6875 L 5.3125 17.617188 L 2.96875 17.617188 L 2.96875 11.757812 L 5.3125 11.757812 Z M 5.3125 14.6875 "/>
</g>
</svg>
