<?xml version="1.0" encoding="UTF-8"?>
<svg xmlns="http://www.w3.org/2000/svg" xmlns:xlink="http://www.w3.org/1999/xlink" width="20px" height="20px" viewBox="0 0 20 20" version="1.1">
<g id="surface1">
<path style=" stroke:none;fill-rule:nonzero;fill:rgb(0%,0%,0%);fill-opacity:1;" d="M 1.410156 1.253906 C 0.738281 1.386719 0.167969 1.964844 0.0390625 2.652344 C -0.015625 2.9375 -0.015625 10.03125 0.0390625 10.316406 C 0.171875 11.019531 0.738281 11.585938 1.441406 11.71875 C 1.558594 11.738281 1.808594 11.757812 1.996094 11.757812 L 2.34375 11.757812 L 2.34375 12.699219 C 2.34375 13.585938 2.347656 13.648438 2.425781 13.789062 C 2.519531 13.953125 2.746094 14.101562 2.90625 14.101562 C 3.089844 14.101562 3.242188 14.011719 4.5625 13.128906 L 5.859375 12.265625 L 5.859375 13.53125 C 5.859375 14.226562 5.878906 14.886719 5.898438 15.003906 C 6.03125 15.707031 6.597656 16.273438 7.300781 16.40625 C 7.433594 16.429688 8.613281 16.445312 10.445312 16.445312 L 13.378906 16.445312 L 15.054688 17.5625 C 15.980469 18.179688 16.792969 18.707031 16.863281 18.734375 C 16.933594 18.765625 17.035156 18.789062 17.09375 18.789062 C 17.253906 18.789062 17.480469 18.640625 17.574219 18.476562 C 17.652344 18.335938 17.65625 18.273438 17.65625 17.386719 L 17.65625 16.445312 L 18.003906 16.445312 C 18.191406 16.445312 18.441406 16.425781 18.558594 16.40625 C 19.261719 16.273438 19.828125 15.707031 19.960938 15.003906 C 20.015625 14.71875 20.015625 7.625 19.960938 7.339844 C 19.828125 6.636719 19.261719 6.070312 18.558594 5.9375 C 18.433594 5.914062 17.511719 5.898438 16.246094 5.898438 L 14.140625 5.898438 L 14.140625 4.378906 C 14.140625 3.511719 14.125 2.773438 14.101562 2.652344 C 13.96875 1.949219 13.402344 1.382812 12.699219 1.25 C 12.4375 1.203125 1.664062 1.203125 1.410156 1.253906 Z M 12.65625 2.460938 C 12.757812 2.511719 12.839844 2.59375 12.890625 2.695312 C 12.96875 2.84375 12.96875 2.917969 12.96875 6.484375 C 12.96875 10.050781 12.96875 10.125 12.890625 10.273438 C 12.839844 10.375 12.757812 10.457031 12.65625 10.507812 C 12.507812 10.585938 12.433594 10.585938 9.433594 10.585938 C 6.917969 10.585938 6.339844 10.59375 6.234375 10.640625 C 6.164062 10.667969 5.523438 11.082031 4.8125 11.558594 L 3.515625 12.421875 L 3.515625 11.738281 C 3.515625 10.9375 3.476562 10.804688 3.203125 10.664062 C 3.066406 10.59375 2.972656 10.585938 2.34375 10.585938 C 1.523438 10.585938 1.390625 10.546875 1.25 10.273438 C 1.171875 10.125 1.171875 10.050781 1.171875 6.484375 C 1.171875 2.917969 1.171875 2.84375 1.25 2.695312 C 1.296875 2.601562 1.386719 2.511719 1.476562 2.464844 C 1.617188 2.386719 1.722656 2.386719 7.0625 2.382812 C 12.441406 2.382812 12.503906 2.382812 12.65625 2.460938 Z M 18.515625 7.148438 C 18.617188 7.199219 18.699219 7.28125 18.75 7.382812 C 18.828125 7.53125 18.828125 7.605469 18.828125 11.171875 C 18.828125 14.738281 18.828125 14.8125 18.75 14.960938 C 18.609375 15.234375 18.476562 15.273438 17.65625 15.273438 C 17.027344 15.273438 16.933594 15.28125 16.796875 15.351562 C 16.523438 15.492188 16.484375 15.625 16.484375 16.425781 L 16.484375 17.109375 L 15.1875 16.246094 C 14.476562 15.769531 13.835938 15.355469 13.765625 15.328125 C 13.660156 15.28125 13.082031 15.273438 10.566406 15.273438 C 7.566406 15.273438 7.492188 15.273438 7.34375 15.195312 C 7.242188 15.144531 7.160156 15.0625 7.109375 14.960938 C 7.035156 14.816406 7.03125 14.734375 7.03125 13.28125 L 7.03125 11.757812 L 9.761719 11.757812 C 11.453125 11.757812 12.570312 11.742188 12.699219 11.71875 C 13.402344 11.585938 13.96875 11.019531 14.101562 10.316406 C 14.125 10.195312 14.140625 9.457031 14.140625 8.589844 L 14.140625 7.070312 L 16.25 7.070312 C 18.289062 7.070312 18.367188 7.074219 18.515625 7.148438 Z M 18.515625 7.148438 "/>
<path style=" stroke:none;fill-rule:nonzero;fill:rgb(0%,0%,0%);fill-opacity:1;" d="M 2.648438 4.808594 C 2.480469 4.894531 2.34375 5.125 2.34375 5.3125 C 2.34375 5.507812 2.480469 5.730469 2.65625 5.820312 C 2.808594 5.898438 2.878906 5.898438 7.070312 5.898438 C 11.261719 5.898438 11.332031 5.898438 11.484375 5.820312 C 11.660156 5.730469 11.796875 5.507812 11.796875 5.3125 C 11.796875 5.117188 11.660156 4.894531 11.484375 4.804688 C 11.332031 4.726562 11.265625 4.726562 7.0625 4.726562 C 2.890625 4.730469 2.789062 4.730469 2.648438 4.808594 Z M 2.648438 4.808594 "/>
<path style=" stroke:none;fill-rule:nonzero;fill:rgb(0%,0%,0%);fill-opacity:1;" d="M 2.648438 7.152344 C 2.480469 7.238281 2.34375 7.46875 2.34375 7.65625 C 2.34375 7.851562 2.480469 8.074219 2.65625 8.164062 C 2.804688 8.238281 2.882812 8.242188 5.273438 8.242188 C 7.664062 8.242188 7.742188 8.238281 7.890625 8.164062 C 8.066406 8.074219 8.203125 7.851562 8.203125 7.65625 C 8.203125 7.460938 8.066406 7.238281 7.890625 7.148438 C 7.742188 7.074219 7.667969 7.070312 5.265625 7.070312 C 2.882812 7.074219 2.789062 7.078125 2.648438 7.152344 Z M 2.648438 7.152344 "/>
</g>
</svg>
