<?xml version="1.0" encoding="UTF-8"?>
<svg xmlns="http://www.w3.org/2000/svg" xmlns:xlink="http://www.w3.org/1999/xlink" width="20px" height="20px" viewBox="0 0 20 20" version="1.1">
<g id="surface1">
<path style=" stroke:none;fill-rule:nonzero;fill:rgb(0%,0%,0%);fill-opacity:1;" d="M 17.265625 0.0429688 C 17.042969 0.0859375 16.707031 0.21875 16.496094 0.347656 C 16.3125 0.464844 7.5625 9.144531 7.40625 9.367188 C 7.320312 9.496094 7.253906 9.757812 6.984375 11.105469 C 6.691406 12.578125 6.671875 12.710938 6.714844 12.859375 C 6.777344 13.0625 6.933594 13.222656 7.132812 13.28125 C 7.277344 13.324219 7.4375 13.300781 8.882812 13.011719 C 9.757812 12.835938 10.484375 12.695312 10.5 12.695312 C 10.523438 12.695312 17.265625 5.972656 18.910156 4.308594 C 19.558594 3.652344 19.621094 3.578125 19.761719 3.273438 C 20.085938 2.582031 20.070312 1.871094 19.71875 1.199219 C 19.554688 0.886719 19.113281 0.445312 18.800781 0.28125 C 18.339844 0.0390625 17.75 -0.0507812 17.265625 0.0429688 Z M 18.066406 1.316406 C 18.335938 1.40625 18.609375 1.6875 18.6875 1.957031 C 18.839844 2.46875 18.753906 2.695312 18.167969 3.292969 L 17.71875 3.753906 L 16.25 2.285156 L 16.691406 1.84375 C 17.027344 1.507812 17.175781 1.386719 17.324219 1.328125 C 17.566406 1.234375 17.820312 1.230469 18.066406 1.316406 Z M 16.09375 3.925781 L 16.816406 4.648438 L 9.941406 11.523438 L 9.050781 11.703125 C 8.558594 11.800781 8.148438 11.871094 8.136719 11.863281 C 8.128906 11.851562 8.199219 11.441406 8.296875 10.949219 L 8.476562 10.058594 L 11.90625 6.628906 C 13.789062 4.746094 15.339844 3.203125 15.351562 3.203125 C 15.363281 3.203125 15.695312 3.527344 16.09375 3.925781 Z M 16.09375 3.925781 "/>
<path style=" stroke:none;fill-rule:nonzero;fill:rgb(0%,0%,0%);fill-opacity:1;" d="M 2.011719 3.347656 C 1.613281 3.402344 1.089844 3.636719 0.773438 3.90625 C 0.53125 4.117188 0.21875 4.585938 0.109375 4.914062 L 0.0195312 5.175781 L 0.0078125 11.542969 C -0.00390625 18.632812 -0.0195312 18.195312 0.265625 18.757812 C 0.457031 19.148438 0.863281 19.546875 1.25 19.742188 C 1.8125 20.015625 1.40625 20.003906 8.46875 19.992188 L 14.824219 19.980469 L 15.113281 19.875 C 15.835938 19.609375 16.355469 19.054688 16.589844 18.300781 C 16.65625 18.078125 16.660156 17.84375 16.660156 14.257812 C 16.660156 10.71875 16.65625 10.441406 16.59375 10.324219 C 16.480469 10.117188 16.300781 10.019531 16.046875 10.019531 C 15.808594 10.019531 15.679688 10.085938 15.53125 10.289062 C 15.449219 10.394531 15.449219 10.433594 15.429688 14.171875 C 15.410156 17.699219 15.40625 17.960938 15.339844 18.105469 C 15.25 18.300781 15.027344 18.535156 14.824219 18.644531 L 14.667969 18.730469 L 8.425781 18.742188 C 4.246094 18.746094 2.128906 18.738281 2.03125 18.710938 C 1.78125 18.644531 1.523438 18.4375 1.390625 18.203125 L 1.269531 17.988281 L 1.269531 5.332031 L 1.355469 5.171875 C 1.46875 4.960938 1.664062 4.773438 1.875 4.671875 C 2.050781 4.589844 2.078125 4.589844 5.828125 4.570312 C 9.566406 4.550781 9.605469 4.550781 9.710938 4.46875 C 9.886719 4.339844 9.972656 4.195312 9.988281 3.996094 C 10.007812 3.742188 9.886719 3.527344 9.648438 3.40625 L 9.476562 3.320312 L 5.800781 3.324219 C 3.78125 3.328125 2.078125 3.339844 2.011719 3.347656 Z M 2.011719 3.347656 "/>
</g>
</svg>
