<?xml version="1.0" encoding="UTF-8"?>
<svg xmlns="http://www.w3.org/2000/svg" xmlns:xlink="http://www.w3.org/1999/xlink" width="20px" height="20px" viewBox="0 0 20 20" version="1.1">
<g id="surface1">
<path style=" stroke:none;fill-rule:nonzero;fill:#C2410C;fill-opacity:1;" d="M 0.875 0.210938 C 0.648438 0.28125 0.382812 0.476562 0.238281 0.671875 C -0.0195312 1.019531 0 0.34375 0.0078125 10.15625 L 0.0195312 19.082031 L 0.117188 19.277344 C 0.238281 19.527344 0.472656 19.761719 0.722656 19.882812 L 0.917969 19.980469 L 19.082031 19.980469 L 19.277344 19.882812 C 19.527344 19.761719 19.761719 19.527344 19.882812 19.277344 L 19.980469 19.082031 L 19.980469 9.941406 L 19.886719 9.734375 C 19.769531 9.472656 19.441406 9.167969 19.191406 9.085938 C 19.085938 9.054688 17.394531 8.707031 15.429688 8.320312 C 13.464844 7.929688 11.816406 7.601562 11.769531 7.589844 L 11.683594 7.570312 L 11.671875 5.042969 L 11.660156 2.519531 L 11.53125 2.257812 C 11.277344 1.742188 11.03125 1.617188 9.921875 1.449219 C 9.480469 1.382812 7.382812 1.066406 5.261719 0.742188 C 3.140625 0.421875 1.320312 0.15625 1.21875 0.160156 C 1.117188 0.160156 0.964844 0.183594 0.875 0.210938 Z M 5.894531 1.679688 C 8.460938 2.070312 10.589844 2.402344 10.628906 2.425781 C 10.667969 2.445312 10.726562 2.5 10.757812 2.546875 C 10.8125 2.625 10.820312 3.496094 10.820312 10.90625 L 10.820312 19.179688 L 8.320312 19.179688 L 8.320312 17.191406 C 8.320312 14.851562 8.332031 14.929688 7.949219 14.550781 C 7.574219 14.175781 7.59375 14.179688 5.832031 14.179688 C 4.449219 14.179688 4.320312 14.183594 4.140625 14.253906 C 3.835938 14.371094 3.617188 14.570312 3.46875 14.875 L 3.339844 15.136719 L 3.328125 17.15625 L 3.316406 19.179688 L 2.261719 19.179688 C 1.078125 19.179688 0.996094 19.164062 0.882812 18.925781 C 0.828125 18.808594 0.820312 17.9375 0.820312 10.085938 C 0.820312 3.710938 0.832031 1.34375 0.863281 1.253906 C 0.90625 1.136719 1.09375 0.976562 1.191406 0.976562 C 1.210938 0.976562 3.328125 1.292969 5.894531 1.679688 Z M 15.308594 9.144531 C 17.277344 9.53125 18.929688 9.875 18.976562 9.90625 C 19.1875 10.042969 19.179688 9.894531 19.179688 14.515625 C 19.179688 19.261719 19.195312 18.992188 18.925781 19.117188 C 18.8125 19.171875 18.398438 19.179688 15.238281 19.179688 L 11.679688 19.179688 L 11.679688 13.808594 C 11.679688 10.855469 11.691406 8.4375 11.703125 8.4375 C 11.71875 8.4375 13.339844 8.753906 15.308594 9.144531 Z M 7.371094 15.128906 L 7.480469 15.234375 L 7.503906 19.179688 L 4.179688 19.179688 L 4.179688 17.246094 C 4.179688 15.953125 4.195312 15.285156 4.222656 15.222656 C 4.246094 15.171875 4.3125 15.101562 4.367188 15.066406 C 4.460938 15.007812 4.617188 15 5.867188 15.011719 L 7.265625 15.019531 Z M 7.371094 15.128906 "/>
<path style=" stroke:none;fill-rule:nonzero;fill:#C2410C;fill-opacity:1;" d="M 2.691406 4.238281 C 2.472656 4.355469 2.449219 4.703125 2.640625 4.886719 L 2.742188 4.980469 L 4.757812 4.980469 L 4.859375 4.886719 C 5.054688 4.703125 5.023438 4.351562 4.800781 4.238281 C 4.644531 4.15625 2.839844 4.15625 2.691406 4.238281 Z M 2.691406 4.238281 "/>
<path style=" stroke:none;fill-rule:nonzero;fill:#C2410C;fill-opacity:1;" d="M 6.792969 4.292969 C 6.609375 4.480469 6.648438 4.800781 6.875 4.933594 C 6.96875 4.992188 7.117188 5 7.910156 5 C 8.949219 5 9.023438 4.984375 9.125 4.738281 C 9.199219 4.570312 9.144531 4.375 8.996094 4.257812 C 8.902344 4.183594 8.839844 4.179688 7.902344 4.179688 L 6.90625 4.179688 Z M 6.792969 4.292969 "/>
<path style=" stroke:none;fill-rule:nonzero;fill:#C2410C;fill-opacity:1;" d="M 2.691406 6.738281 C 2.472656 6.855469 2.449219 7.203125 2.640625 7.386719 L 2.742188 7.480469 L 4.757812 7.480469 L 4.859375 7.386719 C 5.054688 7.203125 5.023438 6.851562 4.800781 6.738281 C 4.644531 6.65625 2.839844 6.65625 2.691406 6.738281 Z M 2.691406 6.738281 "/>
<path style=" stroke:none;fill-rule:nonzero;fill:#C2410C;fill-opacity:1;" d="M 6.792969 6.792969 C 6.609375 6.980469 6.648438 7.300781 6.875 7.433594 C 6.96875 7.492188 7.117188 7.5 7.910156 7.5 C 8.949219 7.5 9.023438 7.484375 9.125 7.238281 C 9.199219 7.070312 9.144531 6.875 8.996094 6.757812 C 8.902344 6.683594 8.839844 6.679688 7.902344 6.679688 L 6.90625 6.679688 Z M 6.792969 6.792969 "/>
<path style=" stroke:none;fill-rule:nonzero;fill:#C2410C;fill-opacity:1;" d="M 2.691406 9.238281 C 2.472656 9.355469 2.449219 9.703125 2.640625 9.886719 L 2.742188 9.980469 L 4.757812 9.980469 L 4.859375 9.886719 C 5.054688 9.703125 5.023438 9.351562 4.800781 9.238281 C 4.644531 9.15625 2.839844 9.15625 2.691406 9.238281 Z M 2.691406 9.238281 "/>
<path style=" stroke:none;fill-rule:nonzero;fill:#C2410C;fill-opacity:1;" d="M 6.792969 9.292969 C 6.609375 9.480469 6.648438 9.800781 6.875 9.933594 C 6.96875 9.992188 7.117188 10 7.910156 10 C 8.949219 10 9.023438 9.984375 9.125 9.738281 C 9.199219 9.570312 9.144531 9.375 8.996094 9.257812 C 8.902344 9.183594 8.839844 9.179688 7.902344 9.179688 L 6.90625 9.179688 Z M 6.792969 9.292969 "/>
<path style=" stroke:none;fill-rule:nonzero;fill:#C2410C;fill-opacity:1;" d="M 2.691406 11.738281 C 2.472656 11.855469 2.449219 12.203125 2.640625 12.386719 L 2.742188 12.480469 L 4.757812 12.480469 L 4.859375 12.386719 C 5.054688 12.203125 5.023438 11.851562 4.800781 11.738281 C 4.644531 11.65625 2.839844 11.65625 2.691406 11.738281 Z M 2.691406 11.738281 "/>
<path style=" stroke:none;fill-rule:nonzero;fill:#C2410C;fill-opacity:1;" d="M 6.792969 11.792969 C 6.609375 11.980469 6.648438 12.300781 6.875 12.433594 C 6.96875 12.492188 7.117188 12.5 7.910156 12.5 C 8.949219 12.5 9.023438 12.484375 9.125 12.238281 C 9.199219 12.070312 9.144531 11.875 8.996094 11.757812 C 8.902344 11.683594 8.839844 11.679688 7.902344 11.679688 L 6.90625 11.679688 Z M 6.792969 11.792969 "/>
<path style=" stroke:none;fill-rule:nonzero;fill:#C2410C;fill-opacity:1;" d="M 14.292969 11.792969 C 14.109375 11.980469 14.148438 12.300781 14.375 12.433594 C 14.46875 12.492188 14.617188 12.5 15.410156 12.5 C 16.449219 12.5 16.523438 12.484375 16.625 12.238281 C 16.699219 12.070312 16.644531 11.875 16.496094 11.757812 C 16.402344 11.683594 16.339844 11.679688 15.402344 11.679688 L 14.40625 11.679688 Z M 14.292969 11.792969 "/>
<path style=" stroke:none;fill-rule:nonzero;fill:#C2410C;fill-opacity:1;" d="M 14.292969 14.292969 C 14.109375 14.480469 14.148438 14.800781 14.375 14.933594 C 14.46875 14.992188 14.617188 15 15.410156 15 C 16.449219 15 16.523438 14.984375 16.625 14.738281 C 16.699219 14.570312 16.644531 14.375 16.496094 14.257812 C 16.402344 14.183594 16.339844 14.179688 15.402344 14.179688 L 14.40625 14.179688 Z M 14.292969 14.292969 "/>
<path style=" stroke:none;fill-rule:nonzero;fill:#C2410C;fill-opacity:1;" d="M 14.292969 16.792969 C 14.109375 16.980469 14.148438 17.300781 14.375 17.433594 C 14.46875 17.492188 14.617188 17.5 15.410156 17.5 C 16.449219 17.5 16.523438 17.484375 16.625 17.238281 C 16.699219 17.070312 16.644531 16.875 16.496094 16.757812 C 16.402344 16.683594 16.339844 16.679688 15.402344 16.679688 L 14.40625 16.679688 Z M 14.292969 16.792969 "/>
</g>
</svg>
