<?xml version="1.0" encoding="UTF-8"?>
<svg xmlns="http://www.w3.org/2000/svg" xmlns:xlink="http://www.w3.org/1999/xlink" width="20px" height="20px" viewBox="0 0 20 20" version="1.1">
<g id="surface1">
<path style=" stroke:none;fill-rule:nonzero;fill:rgb(0%,0%,0%);fill-opacity:1;" d="M 9.335938 0.0390625 C 6.753906 0.355469 4.695312 2.3125 4.257812 4.863281 C 4.191406 5.246094 4.179688 5.496094 4.179688 6.410156 L 4.179688 7.5 L 3.515625 7.5 C 2.996094 7.5 2.824219 7.511719 2.734375 7.558594 C 2.484375 7.6875 2.5 7.328125 2.5 13.136719 C 2.5 16.527344 2.515625 18.5 2.539062 18.632812 C 2.664062 19.296875 3.203125 19.835938 3.863281 19.960938 C 4.152344 20.015625 15.851562 20.015625 16.132812 19.960938 C 16.796875 19.835938 17.335938 19.296875 17.460938 18.636719 C 17.484375 18.503906 17.5 16.515625 17.5 13.136719 C 17.5 7.328125 17.515625 7.6875 17.265625 7.558594 C 17.175781 7.511719 17.003906 7.5 16.484375 7.5 L 15.820312 7.5 L 15.820312 6.410156 C 15.820312 5.496094 15.808594 5.246094 15.742188 4.863281 C 15.425781 3.011719 14.257812 1.453125 12.535156 0.585938 C 12.195312 0.414062 11.449219 0.171875 11.035156 0.0976562 C 10.601562 0.0234375 9.730469 -0.0078125 9.335938 0.0390625 Z M 10.878906 0.921875 C 12.777344 1.230469 14.414062 2.773438 14.855469 4.667969 C 14.972656 5.160156 15 5.535156 15 6.527344 L 15 7.5 L 14.179688 7.5 L 14.179688 6.6875 C 14.179688 5.269531 14.082031 4.710938 13.710938 3.964844 C 13.015625 2.566406 11.574219 1.679688 10 1.679688 C 8.425781 1.679688 6.984375 2.566406 6.289062 3.964844 C 5.917969 4.710938 5.820312 5.269531 5.820312 6.6875 L 5.820312 7.5 L 5 7.5 L 5 6.527344 C 5 5.085938 5.082031 4.601562 5.484375 3.707031 C 5.816406 2.957031 6.484375 2.179688 7.207031 1.699219 C 8.328125 0.953125 9.519531 0.703125 10.878906 0.921875 Z M 10.917969 2.636719 C 11.832031 2.902344 12.574219 3.53125 12.988281 4.386719 C 13.277344 4.996094 13.292969 5.066406 13.308594 6.355469 L 13.328125 7.5 L 6.671875 7.5 L 6.691406 6.355469 C 6.707031 5.066406 6.722656 4.996094 7.011719 4.386719 C 7.484375 3.410156 8.378906 2.738281 9.480469 2.539062 C 9.828125 2.476562 10.53125 2.523438 10.917969 2.636719 Z M 16.671875 13.320312 C 16.675781 16.863281 16.667969 18.363281 16.636719 18.511719 C 16.578125 18.808594 16.3125 19.074219 16.019531 19.136719 C 15.730469 19.199219 4.269531 19.199219 3.980469 19.136719 C 3.691406 19.074219 3.425781 18.808594 3.363281 18.519531 C 3.316406 18.296875 3.296875 8.394531 3.347656 8.347656 C 3.359375 8.332031 6.363281 8.324219 10.015625 8.328125 L 16.660156 8.339844 Z M 16.671875 13.320312 "/>
<path style=" stroke:none;fill-rule:nonzero;fill:rgb(0%,0%,0%);fill-opacity:1;" d="M 9.738281 10.859375 C 9.046875 10.960938 8.457031 11.566406 8.359375 12.277344 C 8.289062 12.773438 8.46875 13.324219 8.820312 13.667969 L 9.015625 13.855469 L 8.878906 15.074219 C 8.730469 16.402344 8.730469 16.449219 8.941406 16.589844 C 9.03125 16.652344 9.144531 16.660156 10 16.660156 C 10.855469 16.660156 10.96875 16.652344 11.058594 16.589844 C 11.269531 16.449219 11.269531 16.402344 11.121094 15.074219 L 10.984375 13.855469 L 11.179688 13.667969 C 11.53125 13.324219 11.710938 12.773438 11.640625 12.277344 C 11.511719 11.355469 10.664062 10.726562 9.738281 10.859375 Z M 10.441406 11.804688 C 10.679688 11.964844 10.796875 12.167969 10.8125 12.445312 C 10.835938 12.789062 10.691406 13.039062 10.339844 13.261719 C 10.105469 13.414062 10.101562 13.445312 10.234375 14.613281 C 10.296875 15.195312 10.351562 15.703125 10.351562 15.746094 C 10.351562 15.8125 10.320312 15.820312 10 15.820312 C 9.679688 15.820312 9.648438 15.8125 9.648438 15.746094 C 9.648438 15.703125 9.703125 15.195312 9.765625 14.613281 C 9.898438 13.445312 9.894531 13.414062 9.660156 13.261719 C 9.339844 13.058594 9.179688 12.804688 9.179688 12.496094 C 9.179688 12.175781 9.355469 11.894531 9.65625 11.742188 C 9.855469 11.640625 10.25 11.671875 10.441406 11.804688 Z M 10.441406 11.804688 "/>
</g>
</svg>
