<?xml version="1.0" encoding="UTF-8"?>
<svg xmlns="http://www.w3.org/2000/svg" xmlns:xlink="http://www.w3.org/1999/xlink" width="20px" height="20px" viewBox="0 0 20 20" version="1.1">
<g id="surface1">
<path style=" stroke:none;fill-rule:nonzero;fill:rgb(0%,0%,0%);fill-opacity:1;" d="M 6.074219 2.035156 C 4.035156 3.152344 2.328125 4.101562 2.285156 4.144531 C 2.207031 4.21875 2.207031 4.273438 2.207031 7.296875 C 2.207031 10.613281 2.210938 10.703125 2.421875 11.757812 C 3.050781 14.898438 5.09375 17.644531 7.929688 19.152344 C 8.449219 19.429688 9.75 20 9.859375 20 C 9.988281 19.996094 11.683594 19.25 12.164062 18.980469 C 13.15625 18.425781 13.894531 17.859375 14.6875 17.046875 C 16.332031 15.363281 17.328125 13.328125 17.679688 10.9375 C 17.738281 10.550781 17.75 10.046875 17.761719 7.375 L 17.777344 4.265625 L 17.667969 4.148438 C 17.53125 4.003906 10.015625 0 9.878906 0 C 9.828125 0 8.117188 0.914062 6.074219 2.035156 Z M 13.476562 2.710938 L 17.011719 4.597656 L 17.011719 7.484375 C 17.007812 10.28125 17.007812 10.386719 16.921875 10.933594 C 16.582031 13.09375 15.675781 14.945312 14.222656 16.453125 C 13.15625 17.558594 12.167969 18.222656 10.542969 18.921875 L 9.855469 19.21875 L 9.292969 18.96875 C 8.289062 18.527344 7.6875 18.191406 7.023438 17.695312 C 4.972656 16.167969 3.550781 13.878906 3.109375 11.40625 C 2.960938 10.5625 2.949219 10.308594 2.949219 7.429688 L 2.949219 4.601562 L 6.386719 2.714844 C 8.277344 1.675781 9.851562 0.824219 9.882812 0.824219 C 9.914062 0.824219 11.53125 1.671875 13.476562 2.710938 Z M 13.476562 2.710938 "/>
<path style=" stroke:none;fill-rule:nonzero;fill:rgb(0%,0%,0%);fill-opacity:1;" d="M 12.882812 8.136719 C 12.660156 8.316406 11.667969 9.125 10.671875 9.933594 L 8.863281 11.40625 L 8.039062 10.441406 C 7.050781 9.277344 7.035156 9.257812 6.851562 9.257812 C 6.664062 9.257812 6.566406 9.316406 6.5 9.476562 C 6.453125 9.589844 6.453125 9.628906 6.5 9.734375 C 6.570312 9.90625 8.53125 12.191406 8.664062 12.261719 C 8.734375 12.300781 8.800781 12.304688 8.894531 12.28125 C 9.027344 12.246094 13.683594 8.480469 13.753906 8.355469 C 13.875 8.125 13.683594 7.8125 13.421875 7.8125 C 13.304688 7.8125 13.214844 7.867188 12.882812 8.136719 Z M 12.882812 8.136719 "/>
</g>
</svg>
