<?xml version="1.0" encoding="UTF-8"?>
<svg xmlns="http://www.w3.org/2000/svg" xmlns:xlink="http://www.w3.org/1999/xlink" width="20px" height="20px" viewBox="0 0 20 20" version="1.1">
<g id="surface1">
<path style=" stroke:none;fill-rule:nonzero;fill:rgb(0%,0%,0%);fill-opacity:1;" d="M 9.742188 0.933594 C 9.574219 1.035156 9.441406 1.21875 9.285156 1.566406 C 9.210938 1.726562 8.738281 3.125 8.238281 4.675781 L 7.324219 7.5 L 4.257812 7.5 C 2.351562 7.5 1.09375 7.515625 0.9375 7.539062 C -0.0429688 7.695312 -0.109375 8.304688 0.78125 9.03125 C 0.898438 9.125 2.015625 9.945312 3.261719 10.851562 C 4.507812 11.753906 5.558594 12.515625 5.597656 12.546875 C 5.660156 12.59375 5.601562 12.792969 4.742188 15.429688 C 4.238281 16.988281 3.796875 18.367188 3.769531 18.496094 C 3.738281 18.625 3.710938 18.84375 3.710938 18.984375 C 3.710938 19.308594 3.796875 19.484375 4 19.585938 C 4.136719 19.652344 4.179688 19.65625 4.371094 19.617188 C 4.8125 19.523438 4.664062 19.621094 7.84375 17.3125 L 10.003906 15.746094 L 12.375 17.46875 C 13.679688 18.417969 14.867188 19.269531 15.011719 19.359375 C 15.363281 19.578125 15.726562 19.675781 15.9375 19.613281 C 16.234375 19.523438 16.351562 19.167969 16.253906 18.628906 C 16.230469 18.492188 15.789062 17.078125 15.273438 15.492188 C 14.757812 13.902344 14.347656 12.589844 14.363281 12.574219 C 14.382812 12.558594 15.484375 11.757812 16.816406 10.789062 C 18.148438 9.820312 19.324219 8.945312 19.429688 8.839844 C 19.714844 8.5625 19.84375 8.339844 19.84375 8.132812 C 19.84375 7.984375 19.824219 7.9375 19.695312 7.8125 C 19.398438 7.511719 19.527344 7.523438 15.898438 7.507812 L 12.675781 7.496094 L 11.761719 4.675781 C 11.261719 3.125 10.789062 1.726562 10.714844 1.566406 C 10.492188 1.070312 10.277344 0.859375 10 0.859375 C 9.925781 0.859375 9.808594 0.894531 9.742188 0.933594 Z M 10.738281 5.574219 C 11.136719 6.796875 11.527344 8.007812 11.613281 8.269531 L 11.769531 8.75 L 14.621094 8.757812 L 17.472656 8.769531 L 15.164062 10.445312 C 13.894531 11.367188 12.859375 12.132812 12.867188 12.144531 C 12.902344 12.199219 14.613281 17.507812 14.601562 17.519531 C 14.59375 17.527344 13.566406 16.785156 12.3125 15.875 C 11.058594 14.964844 10.019531 14.21875 10.003906 14.21875 C 9.984375 14.21875 8.945312 14.964844 7.691406 15.875 C 6.4375 16.785156 5.402344 17.527344 5.398438 17.519531 C 5.390625 17.511719 5.773438 16.304688 6.25 14.835938 C 6.726562 13.367188 7.121094 12.15625 7.121094 12.140625 C 7.128906 12.109375 6.914062 11.949219 4.339844 10.082031 L 2.527344 8.769531 L 5.378906 8.757812 L 8.230469 8.75 L 9.105469 6.054688 C 9.585938 4.570312 9.988281 3.359375 10 3.359375 C 10.011719 3.359375 10.34375 4.355469 10.738281 5.574219 Z M 10.738281 5.574219 "/>
</g>
</svg>
