<?xml version="1.0" encoding="UTF-8"?>
<svg xmlns="http://www.w3.org/2000/svg" xmlns:xlink="http://www.w3.org/1999/xlink" width="20px" height="20px" viewBox="0 0 20 20" version="1.1">
<g id="surface1">
<path style=" stroke:none;fill-rule:nonzero;fill:#C2410C;fill-opacity:1;" d="M 6.914062 1.839844 C 5.132812 2.214844 3.777344 3.683594 3.515625 5.527344 C 3.371094 6.554688 3.660156 7.710938 4.285156 8.589844 C 4.53125 8.9375 5.015625 9.40625 5.375 9.648438 C 5.539062 9.753906 5.648438 9.851562 5.617188 9.859375 C 4.691406 10.140625 3.699219 10.609375 3.089844 11.042969 C 1.515625 12.171875 0.503906 13.683594 0.128906 15.464844 C 0.03125 15.921875 0.0234375 16.027344 0.0234375 16.984375 L 0.0195312 18.015625 L 0.148438 18.128906 C 0.363281 18.320312 0.6875 18.269531 0.816406 18.019531 C 0.84375 17.96875 0.859375 17.683594 0.859375 17.273438 C 0.859375 15.902344 1.023438 15.105469 1.496094 14.160156 C 2.117188 12.910156 3.144531 11.902344 4.472656 11.230469 C 6.519531 10.191406 9.039062 10.175781 11.105469 11.191406 C 12.703125 11.96875 13.9375 13.332031 14.472656 14.898438 C 14.695312 15.5625 14.730469 15.804688 14.761719 16.914062 C 14.789062 17.992188 14.796875 18.0625 14.96875 18.179688 C 15.082031 18.261719 15.347656 18.257812 15.464844 18.179688 C 15.628906 18.0625 15.664062 17.902344 15.664062 17.238281 C 15.664062 16.511719 15.613281 15.902344 15.507812 15.398438 C 15.210938 13.980469 14.386719 12.589844 13.242188 11.578125 C 12.527344 10.945312 11.429688 10.316406 10.527344 10.019531 C 10.292969 9.941406 10.074219 9.871094 10.042969 9.859375 C 10.007812 9.847656 10.082031 9.777344 10.238281 9.675781 C 10.753906 9.339844 11.34375 8.695312 11.65625 8.121094 C 12.210938 7.113281 12.316406 5.828125 11.945312 4.707031 C 11.527344 3.445312 10.484375 2.402344 9.203125 1.96875 C 8.542969 1.742188 7.625 1.691406 6.914062 1.839844 Z M 8.398438 2.660156 C 9.605469 2.851562 10.699219 3.769531 11.101562 4.921875 C 11.296875 5.484375 11.34375 6.210938 11.226562 6.789062 C 10.964844 8.070312 9.972656 9.109375 8.679688 9.460938 C 8.246094 9.578125 7.414062 9.578125 6.972656 9.457031 C 5.722656 9.125 4.75 8.132812 4.449219 6.894531 C 4.339844 6.449219 4.332031 5.738281 4.429688 5.335938 C 4.757812 3.972656 5.800781 2.953125 7.148438 2.675781 C 7.460938 2.613281 8.058594 2.605469 8.398438 2.660156 Z M 8.398438 2.660156 "/>
<path style=" stroke:none;fill-rule:nonzero;fill:#C2410C;fill-opacity:1;" d="M 13.6875 3.550781 C 13.445312 3.699219 13.414062 4.050781 13.628906 4.230469 C 13.71875 4.304688 13.808594 4.332031 14.050781 4.351562 C 14.484375 4.390625 14.660156 4.4375 15.058594 4.628906 C 15.683594 4.929688 16.140625 5.449219 16.382812 6.128906 C 16.488281 6.429688 16.5 6.511719 16.503906 6.933594 C 16.503906 7.347656 16.492188 7.441406 16.390625 7.75 C 16.054688 8.773438 15.191406 9.445312 14.0625 9.5625 C 13.738281 9.597656 13.683594 9.613281 13.605469 9.703125 C 13.441406 9.898438 13.441406 10.101562 13.605469 10.296875 C 13.691406 10.394531 13.726562 10.402344 14.144531 10.4375 C 14.972656 10.5 15.667969 10.675781 16.316406 10.980469 C 17.328125 11.460938 18.246094 12.367188 18.6875 13.324219 C 19.015625 14.03125 19.101562 14.449219 19.128906 15.460938 C 19.152344 16.230469 19.15625 16.261719 19.246094 16.371094 C 19.433594 16.59375 19.808594 16.546875 19.945312 16.285156 C 20.042969 16.09375 20.003906 14.710938 19.882812 14.160156 C 19.648438 13.070312 19.160156 12.199219 18.324219 11.367188 C 17.691406 10.734375 17.011719 10.296875 16.171875 9.980469 C 16.011719 9.917969 15.871094 9.863281 15.863281 9.855469 C 15.851562 9.847656 15.886719 9.8125 15.941406 9.777344 C 16.132812 9.644531 16.574219 9.191406 16.742188 8.957031 C 16.953125 8.664062 17.195312 8.152344 17.285156 7.8125 C 17.375 7.460938 17.40625 6.789062 17.347656 6.421875 C 17.21875 5.632812 16.863281 4.980469 16.257812 4.410156 C 15.757812 3.941406 15.183594 3.652344 14.511719 3.535156 C 14.054688 3.457031 13.835938 3.460938 13.6875 3.550781 Z M 13.6875 3.550781 "/>
</g>
</svg>
